<svg width="32" height="32" viewBox="0 0 32 32" fill="none" xmlns="http://www.w3.org/2000/svg">
<path d="M24.4966 27.0007H7.49766C3.36341 27.0007 0 23.6372 0 19.503V9.2531C0 5.11816 3.36404 1.75412 7.49897 1.75412H13.3732C15.0314 1.82011 15.0302 4.18835 13.3732 4.25378H7.49897C4.74235 4.25378 2.49966 6.49647 2.49966 9.2531V19.5029C2.49966 22.2589 4.74179 24.5009 7.49766 24.5009H24.4966C27.2533 24.5009 29.496 22.2583 29.496 19.5016V9.25303C29.496 8.29516 29.2567 7.39654 28.8039 6.65433C28.4445 6.06503 28.6308 5.29595 29.2201 4.9365C29.8093 4.57705 30.5784 4.76327 30.9379 5.35263C31.6299 6.48704 31.9956 7.83573 31.9956 9.25303V19.5016C31.9956 23.6366 28.6316 27.0007 24.4966 27.0007ZM23.2468 30.7502C23.2468 30.0599 22.6873 29.5003 21.997 29.5003H9.99863C8.34036 29.5663 8.34161 31.9346 9.99863 32H21.997C22.6873 32 23.2468 31.4404 23.2468 30.7502ZM20.9383 11.8253C20.9383 11.8253 25.6497 6.43436 25.6567 6.42592C26.3252 5.61903 26.6395 4.60011 26.5416 3.55681C26.4438 2.51358 25.9455 1.5709 25.1386 0.902363C24.3317 0.233892 23.3127 -0.0803779 22.2696 0.0175462C21.2263 0.115408 20.2836 0.613652 19.6191 1.41585L15.0393 6.88873C14.5963 7.4181 14.6663 8.2063 15.1957 8.6493C15.7251 9.09231 16.5134 9.02225 16.9563 8.49289L21.5401 3.01526C21.7826 2.72249 22.1246 2.54176 22.503 2.50621C22.882 2.4709 23.2513 2.58476 23.5439 2.82729C24.1389 3.29991 24.2317 4.24084 23.7407 4.82045L19.0561 10.1803C18.3484 10.983 18.9393 12.2598 19.9968 12.2527C20.3448 12.2527 20.6912 12.108 20.9383 11.8253ZM25.1216 21.995H19.4348C17.7766 21.929 17.7778 19.5607 19.4348 19.4953H25.1216C26.7798 19.5613 26.7786 21.9296 25.1216 21.995ZM14.118 20.4844C17.5419 18.6329 18.7316 14.8635 16.4647 11.9845C15.6016 10.9311 14.3819 10.2798 13.0306 10.1508C9.66318 9.85826 7.72019 12.534 6.95292 15.2772C6.67602 16.0965 6.38969 16.9438 5.88813 17.8491C4.78235 19.8055 6.61959 22.0345 8.72156 22.0013C10.384 22.0014 12.5022 21.4059 14.118 20.4844ZM12.7931 12.6393C13.4762 12.7044 14.0935 13.0346 14.5313 13.5689C14.9183 14.0413 15.1229 14.6201 15.1229 15.243C15.0357 18.1676 10.7055 19.4766 8.72156 19.5018C8.44003 19.5017 8.18651 19.3292 8.09089 19.1669C8.05215 19.1011 8.05921 19.0884 8.07458 19.0606C8.68556 17.9579 9.02314 16.9589 9.32097 16.0775C9.73823 14.8427 10.0398 13.9506 10.9177 13.2201H10.9178C11.3822 12.8336 11.953 12.6275 12.547 12.6275C12.6286 12.6275 12.7107 12.6314 12.7931 12.6393Z" fill="#060714"/>
</svg>
